<?xml version="1.0" encoding="utf-8"?>
<!DOCTYPE svg PUBLIC "-//W3C//DTD SVG 20010904//EN" "http://www.w3.org/TR/2001/REC-SVG-20010904/DTD/svg10.dtd">
<svg version="1.0" xmlns="http://www.w3.org/2000/svg" width="514pt" height="514pt" viewBox="0 0 514 514" style="" preserveAspectRatio="xMidYMid meet">
<g fill="#F6F6F6FF" stroke="#F6F6F6FF">
<path d="M 1.083 124.250 C 1.154 229.485 1.363 246.696 2.507 242.000 C 7.763 220.439 23.302 203.551 45.000 195.819 C 51.301 193.574 52.680 193.494 90.109 193.198 L 128.719 192.893 129.286 186.135 C 131.142 163.993 146.608 142.955 167.665 133.929 C 182.972 127.368 203.028 127.368 218.335 133.929 C 228.405 138.246 235.423 144.372 271.079 179.976 C 310.051 218.890 313.055 222.529 318.156 237.000 C 320.110 242.543 320.447 245.487 320.447 257.000 C 320.447 268.513 320.110 271.457 318.156 277.000 C 313.055 291.471 310.051 295.110 271.079 334.024 C 235.423 369.628 228.405 375.754 218.335 380.071 C 203.028 386.632 182.972 386.632 167.665 380.071 C 146.608 371.045 131.142 350.007 129.286 327.865 L 128.719 321.107 90.109 320.802 C 52.735 320.507 51.292 320.423 45.000 318.190 C 24.145 310.788 7.547 292.891 2.614 272.488 C 1.325 267.155 1.158 279.976 1.083 389.750 L 1.000 513.000 45.750 512.914 C 70.363 512.867 89.375 512.485 88.000 512.065 C 78.629 509.204 70.505 501.637 67.135 492.631 C 65.033 487.013 65.000 485.888 65.000 419.962 L 65.000 353.000 81.000 353.000 L 97.000 353.000 97.000 417.000 L 97.000 481.000 289.000 481.000 L 481.000 481.000 481.000 257.000 L 481.000 33.000 289.000 33.000 L 97.000 33.000 97.000 97.000 L 97.000 161.000 80.973 161.000 L 64.947 161.000 65.223 92.250 L 65.500 23.500 67.856 19.000 C 72.103 10.889 79.670 4.478 88.000 1.935 C 89.375 1.515 70.363 1.133 45.750 1.086 L 1.000 1.000 1.083 124.250 M 449.000 257.000 L 449.000 449.000 401.000 449.000 L 353.000 449.000 353.000 257.000 L 353.000 65.000 401.000 65.000 L 449.000 65.000 449.000 257.000 "/></g>
<g fill="#000000FF" stroke="#000000FF">
<path d="M 184.500 130.012 C 170.452 131.946 159.317 137.635 148.389 148.463 C 136.821 159.925 132.332 169.585 129.477 189.158 L 128.944 192.816 91.722 193.267 C 50.550 193.766 49.768 193.869 36.000 200.630 C 24.961 206.050 13.649 217.612 8.241 229.000 C 3.212 239.591 1.673 246.149 1.673 257.000 C 1.673 267.851 3.212 274.409 8.241 285.000 C 13.649 296.388 24.961 307.950 36.000 313.370 C 49.749 320.121 50.577 320.231 91.500 320.735 C 117.937 321.061 128.710 321.520 129.235 322.345 C 129.639 322.980 129.982 325.300 129.997 327.500 C 130.121 345.819 146.122 368.794 165.000 377.759 C 175.591 382.788 182.149 384.327 193.000 384.327 C 210.038 384.327 223.957 378.633 237.226 366.235 C 247.932 356.232 292.232 311.932 302.235 301.226 C 314.633 287.957 320.327 274.038 320.327 257.000 C 320.327 239.962 314.633 226.043 302.235 212.774 C 292.232 202.068 247.932 157.768 237.226 147.765 C 222.152 133.681 203.491 127.398 184.500 130.012 M 207.369 164.157 C 214.125 167.626 281.561 234.980 285.631 242.323 C 288.225 247.004 288.500 248.410 288.500 257.000 C 288.500 265.590 288.225 266.996 285.631 271.677 C 281.638 278.880 214.190 346.311 207.369 349.918 C 203.125 352.162 201.281 352.493 193.000 352.492 C 184.641 352.491 182.892 352.170 178.437 349.823 C 172.705 346.803 167.171 341.123 163.796 334.795 C 161.872 331.186 161.505 328.982 161.503 321.000 C 161.500 312.482 161.787 310.983 164.274 306.500 C 165.800 303.750 169.689 298.800 172.916 295.500 L 178.784 289.500 117.142 289.000 L 55.500 288.500 50.500 285.836 C 39.346 279.895 33.000 269.437 33.000 257.000 C 33.000 244.563 39.346 234.105 50.500 228.164 L 55.500 225.500 117.142 225.000 L 178.784 224.500 172.916 218.500 C 169.689 215.200 165.800 210.250 164.274 207.500 C 161.787 203.017 161.500 201.518 161.503 193.000 C 161.506 182.325 162.987 178.340 169.725 170.883 C 176.251 163.659 183.330 160.937 194.500 161.356 C 200.660 161.587 203.620 162.231 207.369 164.157 "/></g>
<g fill="#000000FF" stroke="#000000FF">
<path d="M 91.801 2.019 C 81.532 3.769 71.871 11.626 67.531 21.759 C 65.567 26.343 65.490 28.733 65.204 93.750 L 64.908 161.000 80.954 161.000 L 97.000 161.000 97.000 97.000 L 97.000 33.000 289.000 33.000 L 481.000 33.000 481.000 257.000 L 481.000 481.000 289.000 481.000 L 97.000 481.000 97.000 417.000 L 97.000 353.000 80.954 353.000 L 64.908 353.000 65.204 420.250 C 65.490 485.267 65.567 487.657 67.531 492.241 C 70.775 499.816 76.180 505.471 83.725 509.185 L 90.458 512.500 289.000 512.500 L 487.542 512.500 494.275 509.185 C 501.820 505.471 507.225 499.816 510.469 492.241 C 512.491 487.522 512.500 486.444 512.500 257.000 C 512.500 27.556 512.491 26.478 510.469 21.759 C 507.225 14.184 501.820 8.529 494.276 4.815 L 487.543 1.500 292.021 1.359 C 184.485 1.281 94.385 1.578 91.801 2.019 "/></g>
<g fill="#000000FF" stroke="#000000FF">
<path d="M 353.000 257.000 L 353.000 449.000 401.000 449.000 L 449.000 449.000 449.000 257.000 L 449.000 65.000 401.000 65.000 L 353.000 65.000 353.000 257.000 M 417.000 257.000 L 417.000 417.000 401.000 417.000 L 385.000 417.000 385.000 257.000 L 385.000 97.000 401.000 97.000 L 417.000 97.000 417.000 257.000 "/></g>
<g fill="#F6F6F6FF" stroke="#F6F6F6FF">
<path d="M 187.801 162.093 C 173.191 164.352 161.899 177.653 161.812 192.704 C 161.756 202.395 164.324 208.100 172.807 217.125 L 180.113 224.900 119.284 225.200 L 58.454 225.500 51.723 228.815 C 40.155 234.511 33.830 244.475 33.830 257.000 C 33.830 269.525 40.155 279.489 51.723 285.185 L 58.454 288.500 119.284 288.800 L 180.113 289.100 172.807 296.875 C 164.324 305.900 161.756 311.605 161.812 321.296 C 161.882 333.428 168.311 343.566 179.396 349.023 C 184.784 351.676 186.944 352.176 193.000 352.176 C 206.186 352.176 207.383 351.263 248.536 309.804 C 288.417 269.627 288.200 269.916 288.200 257.000 C 288.200 244.084 288.417 244.373 248.536 204.196 C 217.496 172.925 211.668 167.495 206.500 165.031 C 199.767 161.819 194.709 161.025 187.801 162.093 "/></g>
<g fill="#F6F6F6FF" stroke="#F6F6F6FF">
<path d="M 385.000 257.000 L 385.000 417.000 401.000 417.000 L 417.000 417.000 417.000 257.000 L 417.000 97.000 401.000 97.000 L 385.000 97.000 385.000 257.000 "/></g>
<g fill="#F6F6F6FF" stroke="#F6F6F6FF">
<path d="M 510.670 493.053 C 507.691 501.461 499.224 509.249 490.000 512.065 C 488.527 512.514 492.752 512.863 500.280 512.914 L 513.060 513.000 512.780 500.445 L 512.500 487.889 510.670 493.053 "/></g>
<g fill="#F6F6F6FF" stroke="#F6F6F6FF">
<path d="M 490.006 1.934 C 500.236 5.046 508.935 13.748 512.065 24.000 C 512.515 25.473 512.863 21.264 512.914 13.750 L 513.000 1.000 500.250 1.086 C 492.738 1.137 488.530 1.485 490.006 1.934 "/></g>
</svg>
